<?xml version="1.0" encoding="UTF-8" standalone="no"?><!DOCTYPE svg PUBLIC "-//W3C//DTD SVG 1.1//EN" "http://www.w3.org/Graphics/SVG/1.1/DTD/svg11.dtd"><svg width="100%" height="100%" viewBox="0 0 75 112" version="1.1" xmlns="http://www.w3.org/2000/svg" xmlns:xlink="http://www.w3.org/1999/xlink" xml:space="preserve" xmlns:serif="http://www.serif.com/" style="fill-rule:evenodd;clip-rule:evenodd;stroke-linecap:round;stroke-linejoin:round;"><path d="M74.88,3.295c-0,-1.819 -1.472,-3.295 -3.284,-3.295l-68.312,0c-1.812,0 -3.284,1.476 -3.284,3.295l0,104.77c0,1.819 1.472,3.295 3.284,3.295l68.312,-0c1.812,-0 3.284,-1.476 3.284,-3.295l-0,-104.77Z" style="fill:#c4c4c4;"/><g opacity="0.5"><path d="M44.175,59.629l4.815,1.974c0.914,0.374 1.915,-0.299 1.915,-1.29l-0,-8.75c-0,-0.991 -1.001,-1.665 -1.915,-1.291l-4.815,1.974" style="fill:none;fill-rule:nonzero;stroke:#fff;stroke-width:1.11px;"/><path d="M31.271,65.091l8.235,-0c2.87,-0 4.669,-1.876 4.669,-4.531l0,-9.245c0,-2.655 -1.792,-4.531 -4.669,-4.531l-8.235,0c-2.878,0 -4.669,1.876 -4.669,4.531l0,9.245c0,2.655 1.791,4.531 4.669,4.531Z" style="fill:none;stroke:#fff;stroke-width:1.11px;"/></g></svg>