<?xml version="1.0" encoding="UTF-8" standalone="no"?><!DOCTYPE svg PUBLIC "-//W3C//DTD SVG 1.1//EN" "http://www.w3.org/Graphics/SVG/1.1/DTD/svg11.dtd"><svg width="100%" height="100%" viewBox="0 0 75 112" version="1.1" xmlns="http://www.w3.org/2000/svg" xmlns:xlink="http://www.w3.org/1999/xlink" xml:space="preserve" xmlns:serif="http://www.serif.com/" style="fill-rule:evenodd;clip-rule:evenodd;stroke-linecap:round;stroke-linejoin:round;"><clipPath id="_clip1"><path d="M75,2.742c0,-1.513 -1.229,-2.742 -2.742,-2.742l-69.516,0c-1.513,0 -2.742,1.229 -2.742,2.742l0,106.516c0,1.513 1.229,2.742 2.742,2.742l69.516,0c1.513,0 2.742,-1.229 2.742,-2.742l0,-106.516Z"/></clipPath><g clip-path="url(#_clip1)"><clipPath id="_clip2"><rect x="0" y="-4.24" width="75" height="116.24"/></clipPath><g clip-path="url(#_clip2)"><g><path d="M75.426,2.142c0,-1.225 -0.955,-2.22 -2.131,-2.22l-71.164,0c-1.176,0 -2.131,0.995 -2.131,2.22l0,112.802c0,1.225 0.955,2.22 2.131,2.22l71.164,0c1.176,0 2.131,-0.995 2.131,-2.22l0,-112.802Z" style="fill:#c4c4c4;"/><g opacity="0.5"><ellipse cx="36.962" cy="47.811" rx="6.108" ry="6.366" style="fill:none;stroke:#fff;stroke-width:0.65px;"/><path d="M27.273,63.03c-0.002,-0.447 0.094,-0.889 0.281,-1.293c0.585,-1.219 2.235,-1.865 3.604,-2.158c0.987,-0.219 1.988,-0.366 2.995,-0.439c1.865,-0.171 3.741,-0.171 5.605,-0c1.008,0.074 2.009,0.22 2.996,0.439c1.369,0.293 3.019,0.878 3.604,2.158c0.375,0.822 0.375,1.776 0,2.598c-0.585,1.281 -2.235,1.866 -3.604,2.146c-0.986,0.229 -1.988,0.38 -2.996,0.452c-1.517,0.134 -3.042,0.158 -4.563,0.073c-0.351,-0 -0.691,-0 -1.042,-0.073c-1.004,-0.071 -2.001,-0.222 -2.984,-0.452c-1.38,-0.28 -3.019,-0.865 -3.615,-2.146c-0.186,-0.408 -0.282,-0.854 -0.281,-1.305Z" style="fill:none;stroke:#fff;stroke-width:0.65px;"/></g></g></g></g></svg>